<?xml version="1.0" encoding="utf-8"?>
<!-- Generator: Adobe Illustrator 21.0.0, SVG Export Plug-In . SVG Version: 6.00 Build 0)  -->
<svg version="1.1" xmlns="http://www.w3.org/2000/svg" xmlns:xlink="http://www.w3.org/1999/xlink" x="0px" y="0px"
	 viewBox="0 0 595.3 841.9" style="enable-background:new 0 0 595.3 841.9;" xml:space="preserve">
<style type="text/css">
	.st0{fill:#FFFFFF;}
	.st1{fill:#191011;}
	.st2{fill:#6B4848;}
	.st3{fill:url(#SVGID_1_);}
	.st4{fill:#7A7979;}
	.st5{fill:#580C10;}
</style>
<g id="图层_1">
	<path class="st0" d="M531.1,359.4c0,128.9-104.5,233.5-233.5,233.5c-63.7,0-121.5-25.5-163.6-66.9
		c-43.1-42.4-69.9-101.3-69.9-166.6c0-128.9,104.5-233.5,233.5-233.5S531.1,230.5,531.1,359.4z"/>
</g>
<g id="图层_3">
	<path class="st1" d="M538.9,354c-8.2-9.1-15.5-18.5-24.4-26.6c-23.7-21.6-51.3-32.9-83.6-31.7c-12.2,0.4-24,3.3-35.4,7.7
		c-1.1,0.4-3.1,1-2.8,1.6c3.8,6.6-3.3,4.4-5.1,6.3c-1.2,1.2-3.3,1.5-5.4,2.3c3.8,6.1,7.4,12,9.9,18.4c0.8,2,1.6,1.5,2.9,0.6
		c2.9-2.1,5.9-4.1,9.2-6.4c3.1,8.9,4.1,17.9,5,26.7c5.2,48.3,4.8,96.8,4.2,145.3c0,1.3,0,2.6-0.9,3.8c-6.5,8.6-12.9,17.3-20.2,27.1
		c0.9-13.5,1.6-25.4,2.4-37.4c0.8-12,1.6-23.9,2.4-35.9c0.1-1.8,0.2-3.6-1.1-5.2c-14.3-19.3-30.7-36.4-51.1-49.4
		c-0.4-0.2-0.9-0.3-1.6-0.6c0,7.5,0.1,14.7,0,22c0,1.9,1.3,2.1,2.5,2.6c15.2,5.7,27.7,15.7,39.9,26c2.1,1.7,2.5,3.6,2.3,6.1
		c-2.8,38.4-5.4,76.8-10.7,115c-0.5,3.5-1.1,6.9-1.7,10.4c-1.4,8-0.8,8.3-7.7,6.2c-28-8.6-51.7-24.1-72.1-44.9
		c-2.6-2.6-4.7-3.2-8.1-2.1c-21.6,6.5-43.4,8.4-65.2,0.8c-10.5-3.7-19.6-9.7-27.2-18c-2.2-2.4-2.6-4.5-1.3-7.6
		c10.1-24.6,19.9-49.3,29.8-73.9c1.6-3.9-1.8-12.6-5.4-14.3c-1.3-0.6-1.8,0.4-2.5,1c-1.9,1.6-3.7,3.4-5.6,5
		c-1.5,1.4-2.8,3.6-4.9,0.2c-1.1-1.8-3.1,0-4.5,0.7c-14.8,7-25.4,18.6-33.6,32.4c-12.9,21.8-19.4,45.8-23.2,70.6
		c-0.8,5.1-1.3,10.2-2,15.9c-9.8-9.3-18-19.3-25.3-30c-24.5-35.9-38.6-75.6-42.9-118.8c-6.6-65.9,10.8-124.8,53.4-175.5
		c38.3-45.5,87.3-72.8,146.4-80.8c101.7-13.9,207.7,38.2,251.3,153.1c4.6,12.1,8.3,24.6,10.9,37.3C537.3,344.5,538,349.3,538.9,354z
		"/>
	<path class="st2" d="M134.7,532.2c-10.4-10.9-19-22.2-26.5-34.4c-21-33.9-30-71.1-31.1-110.5c-2.9-99.7,59.2-191.5,153.9-222.9
		c80-26.5,155-14.6,221.3,38.7c38.5,30.9,61,72.3,72,120.2c0.2,0.9,0.2,1.9,0.4,3.3c-5.2-4.7-9.9-9.4-15-13.6
		c-22-18-46.8-28.5-75.5-28.3c-15.5,0.1-30.4,3.6-44.5,9.9c-3.3,1.5-5.1,0.9-7.5-1.5c-23.5-23.8-52.1-35.2-85.4-34.4
		c-54.4,1.3-101.7,44.5-108.4,98.5c-2.8,22.4,0.4,43.8,10.1,64.1c1.4,3,1.3,4.1-2.1,5.6c-13.7,5.8-23.5,16.1-31.6,28.2
		C149.2,478.4,140.8,504.3,134.7,532.2z"/>
	<linearGradient id="SVGID_1_" gradientUnits="userSpaceOnUse" x1="204.9722" y1="411.4826" x2="384.0349" y2="411.4826">
		<stop  offset="0" style="stop-color:#FFFFFF"/>
		<stop  offset="1" style="stop-color:#000000"/>
	</linearGradient>
	<path class="st3" d="M315.8,471c-9.3,14.3-21,24.1-32.7,34.2c-2.8,2.5-5.9,4.7-8.9,7c-2,1.5-2,2.5-0.7,4.4
		c4.2,5.6,8.3,11.2,12.8,17.4c-12.8,4.1-25.7,7.4-39.2,6.8c-15.9-0.8-29-7.6-40.2-18.6c-1.5-1.5-2.6-2.9-1.7-5.6
		c8-24.1,15.8-48.3,23.6-72.5c0.1-0.5,0.5-0.9,0.9-1.7c6.3,5.8,12.4,11.5,20.2,14.9c-9.2-8.2-16.9-17.7-23.2-28.2
		c-10.5-17.5-17.9-36.1-18-56.8c-0.2-40,30.3-77.6,70.6-87.4c32.5-7.9,59.6,3,83.4,24.4c8.6,7.7,15.5,16.9,20.3,27.5
		c0.7,1.6,1.8,3-0.6,4.5c-26.3,16.7-53.3,32.2-84,39.2c-6.4,1.5-8.3,4-9.6,10.1c-5.7,27.8-15.3,54.3-25.1,80.8
		c-3.4,9-3.4,8.9,6.6,8.6c7.7-0.2,15.3-1.1,22.8-2.6C300.5,476,307.6,473.8,315.8,471z"/>
	<path class="st4" d="M390.1,306.8c-6.8,4.4-11,2.7-16.5-3c-27.9-28.6-62.2-37.5-100.2-26.8c-37.3,10.5-60.6,36.3-69.6,73.9
		c-5.8,24-2,47.3,9.8,69.1c1.5,2.7,2.2,4.2-1.3,6c-3.1,1.6-4.3,1.2-6-1.8c-32.1-57-4.7-145.8,76.3-159.6
		c41.7-7.1,76.5,7.4,104.7,38.5C388.3,304.3,389.1,305.6,390.1,306.8z"/>
	<path class="st5" d="M323.3,463.2c-16.9,6.5-34,8.4-51.9,8.6c3.1-8.3,6.2-16.2,8.9-24.1c6.4-18.5,12.9-37.1,16.3-56.5
		c0.4-2,1.1-3.2,3.4-3.5c21.6-3.1,40.9-12.4,59.7-22.8c12.2-6.8,24-14.3,35.4-22.5c2.7-1.9,3.6-2.5,4.6,1.6
		c5.1,22.5,7.1,45.4,8.5,68.3c1.6,26.6,1.5,53.3,1.2,79.9c-0.1,8.5-0.2,8.5-7.8,15.6c0-11.4,0-22.3,0-33.2c0-3.8-0.3-7.7,0.2-11.5
		c1.2-9.1-2.1-16.3-7.5-23.3c-14.1-18.3-29.1-35.5-48.8-48.2c-1.5-1-3.1-1.9-4.7-2.9c-2.7-1.9-4.2-2-4.3,2.1
		c-0.5,12.8-1.2,25.6-2,38.4c-0.2,2.7,0.4,3.6,3.4,3.8c17.5,1.1,31.4,9.8,44.5,20.6c1.7,1.4,1.6,3,1.4,4.9
		c-3.7,32.4-8.7,64.6-13.8,96.8c-0.8,4.9-1.9,9.8-2.5,14.8c-0.4,3.9-1.6,5.2-5.8,4.1c-25.8-6.3-46.8-20.3-64.2-40
		c-4.3-4.9-8-10.2-12.2-15.2c-2.2-2.6-2.3-4.1,0.6-6.7c10.9-9.5,21-20,29.3-32C318.6,475.3,321.6,470,323.3,463.2z"/>
</g>
</svg>
