<svg xmlns="http://www.w3.org/2000/svg" height="120" width="118"><g transform="translate(-215.2 -275.7)"><ellipse ry="60" rx="59" cy="335.7" cx="274.2" fill="#fff"/><path d="M236.2 318.1l-.1-4-2 1.2-1.9-1.1-.7 1.3-.6-.3 4-7.2.6.3-.8 1.4 2 1v2.4l3.4-2 .3.6-3.7 2.1.1 4.3zm-3.3-6.6l-1 .2-.1-.6 1-.3zm3.2-.3l-1.7-1-1.9 3.4 1.7 1 1.9-1.2zm5.7-11l-1.2-.1v-.7l1.3.2zm.1 2.4l-1-1.3 6-5.1 1 1.3-.5.4-.7-.8-5 4.2.7.8zm2-4.1l-1.3-.2.1-.6 1.3.1zm-1 3l3.6-3 .6.6-.3 1.7 2.4-2 .4.5-2.7 2.3 1.3 1.7-1.6 1.3-.4-.5 1.1-1-1-1-3 2.5-.3-.5 3-2.6.3-2-3 2.5zm2.1-4.6v-1.2h.7v1.2zm10.7-7.3l.2 1 6-2.2.2.6-6 2.2.1 1.4v.1l6.4-2.2 1.5 4.5-4 1.4-.2-.6 3.4-1.2-1.2-3.3-6.2 2.3-.3-.8-.5-3.1zm.1 5.6l5.9-2.1.2.6-5.9 2.1zm17.5-8.8l-.7.9v6.7h-.7v-5.8l-.6.9-.5-.4 2-2.7zm2.9-.3l-.3.9h2.7v.7h-3l-.3 1h3.5v.7H275l-.3 1v.1l3.5.1v1l-1.5 1.4 1.6.3-.1.6-4.8-1 .1-.6 2.5.5 1.5-1.5-3.5-.1v-1l.4-.8h-1.1v-.7h1.3l.4-1.1h-1.5v-.7h1.7l.4-1zm12.9 2.2l-.5 1.3 1.7.7-.2.6-.4-.2-1.4 3.6-.8.4.5 1.3-.6.2-.5-1.3-1.2.6-.3-.5 1.3-.7-.4-.8 1.4-3.5-.4-.2.2-.6.4.1.6-1.3zm-1.3 5.5l1.3-3.3-.8-.3-1.3 3.3.3.6zm2.1 3.5l.8-1.9-2 1-.3-.7 2.1-1-1.7-.6.3-.6 2 .8.3-.7-1.3-.6 1-2.5-.7-.3.2-.6.7.2.3-.6.6.2-.3.7 2 .8.3-.7.6.3-.3.6.7.3-.2.6-.7-.3-1 2.6-1.3-.5-.3.7 2 .8-.2.6-1.7-.6 1 2.2-.7.2-.8-2-.8 1.9zm3-3.8l.8-2-2-.8-.8 2zm-.7-.7l-.5-1.1.6-.3.5 1.2zm10.3 6.4l3.5 3.2-.6.6h-1.7l2.4 2.1-.5.5-2.6-2.4-1.4 1.6-1.6-1.4.5-.5 1 1 1-1.1-2.9-2.7.4-.5 3 2.7h2l-2.9-2.6zm-1.2-.8l1.2-1.3 5.8 5.3-1.1 1.2-.5-.4.7-.8-4.9-4.4-.7.8zm2.3-.5v-1.2h.6v1.2zm2 1.8v-1.2h.6v1.2zm1.7 1l1.2-.1v.6l-1.1.1zm.9 12l6.9-3.8 1 2.1-2 1H313l.3.6-3 1.6-.6-1.1.5-.3.3.5 1.9-1-.3-.6.6-.3h1.4l1.3-.7-.5-.9-6.3 3.4zm6.2 5.5l-.6-1.2-2 1 .2.3.9-.1.1.6-1.3.3-.7-1.3 2.5-1.4-.6-1.2-1.9 1-1.2-.6.3-.6 1 .4 1.5-.8-.5-1 .6-.2 2.3 4.5zm1.1-1l-2-3.9.6-.3 2 4zm-1-4.6l1.4-.8 1 1.9.7-.4.3.5-.7.4.9 1.9-1.4.7-.3-.6.8-.4-1.6-3-.8.4zM228 335.3a.5.5 0 0 1-.3-.2.6.6 0 0 1-.1-.4v-2.6h.3v2.3a.1.1 0 0 0 .1 0h1.3a.2.2 0 0 0 .1 0 .2.2 0 0 0 0-.1v-1.8a.4.4 0 0 1 .2-.3.4.4 0 0 1 .3-.1h.7a.4.4 0 0 1 .3.1v3.1h-.3v-2.2a.2.2 0 0 0 0-.1h-.7a.1.1 0 0 0-.1 0v1.8a.5.5 0 0 1-.4.5.6.6 0 0 1-.1 0zm3.4 5l-.4.1-.2-2.2a.1.1 0 0 0-.1-.1l-2.5.2a.1.1 0 0 0-.1.2l.2 2.2h-.3l-.3-2.7a.4.4 0 0 1 0-.2.4.4 0 0 1 .1-.1.5.5 0 0 1 .1-.1.4.4 0 0 1 .2 0l2.5-.3a.4.4 0 0 1 .3 0 .4.4 0 0 1 .2.4zm-2.4 5.8l-.2-.8 2-.4-.4-1.5-1.9.4-.2-.8 3.4-.7.1.8-1 .2.3 1.6 1-.3.2.8zm.7 2.6v-.2a.4.4 0 0 1 0-.1.4.4 0 0 1 .1-.2.4.4 0 0 1 .2 0l2.8-1 1 3.1-2.8 1a.5.5 0 0 1-.2 0 .5.5 0 0 1-.3-.1.4.4 0 0 1 0-.2zm.6.2a.1.1 0 0 0-.1 0 .1.1 0 0 0 0 .2l.4 1.3a.1.1 0 0 0 0 .1h.2l2.5-.8-.6-1.6zm1.2 5a.5.5 0 0 1 0-.4.4.4 0 0 1 .3-.2l2.7-1.3 1.3 3-2.7 1.3a.4.4 0 0 1-.3 0 .5.5 0 0 1-.2 0 .4.4 0 0 1 0-.2zm.6.1a.1.1 0 0 0 0 .2l.5 1.3a.1.1 0 0 0 .1 0h.1l2.4-1-.7-1.6zm2.5 4.9a.1.1 0 0 0-.1 0 .1.1 0 0 0 0 .2l.8 1.3-.3.2-1-1.8a.4.4 0 0 1 0-.2.5.5 0 0 1 0-.1.5.5 0 0 1 .1-.3l2.6-1.5.4.7zm4.7 7.7a.4.4 0 0 1 0-.4.4.4 0 0 1 0-.3l2.3-2 2.2 2.5-2.2 2a.5.5 0 0 1-.2 0 .5.5 0 0 1-.3 0 .4.4 0 0 1-.1 0zm.6 0a.1.1 0 0 0 0 .1l1 1a.1.1 0 0 0 0 .1.1.1 0 0 0 .1 0l2-1.8-1.1-1.3zm3 3.7l2.2-2.6 2.3 2-.2.3-1.7-1.6-.6.7 1.7 1.5-.2.3-1.7-1.5-1.3 1.4zm9.2 6.3a.1.1 0 0 0 0 .1.1.1 0 0 0 0 .1l1.3.7-.2.3-1.7-1a.4.4 0 0 1-.1 0 .5.5 0 0 1 0-.2.5.5 0 0 1-.1-.2.5.5 0 0 1 0-.2l1.5-2.6.7.4zm3.6 2.4l-.7-.3 1.4-3.2.7.4zm3.1 1.3l1-3-1-.3v-.3l3 1v.4l-1.2-.4-1 2.9zm4.5 1.5a.4.4 0 0 1-.2-.1.5.5 0 0 1-.2-.3.4.4 0 0 1 0-.2l.7-2.9 3 .7v.3l-2.3-.5-.2.9 2.3.5-.1.3-2.2-.5-.4 1.4a.1.1 0 0 0 0 .1.1.1 0 0 0 .2 0l2 .6v.3zm8.3-2.1v1.3a.4.4 0 0 1-.2.2.4.4 0 0 1-.4.2l.3 1.7h-.9l-.2-1.8-1-.1-.2 1.7-.8-.1.3-3.5zm-1 1.3a.1.1 0 0 0 .1-.1l.1-1-1.5-.1-.1 1zm2.7 2.3l1.4-3.5h1.1l1.5 3.4h-.9l-.3-.8h-2l-.3.9zm1-1.2h1.6l-.8-2zm6.2.8l-.5-3.1-1.1.1v-.3l3-.4.1.3-1.2.2.5 3zm4.6-.8a.3.3 0 0 1-.2 0 .5.5 0 0 1-.2-.1.5.5 0 0 1 0-.1.5.5 0 0 1-.2-.2l-.7-2.9.8-.2.7 2.9a.1.1 0 0 0 .2.1l1.2-.3a.2.2 0 0 0 0-.2l-.6-2.9.7-.2.8 3a.4.4 0 0 1 0 .3.4.4 0 0 1-.2.1.4.4 0 0 1-.1 0zm6.5-5.8l.4 1.2a.5.5 0 0 1 0 .3.4.4 0 0 1-.2.3l1 1.4-.8.3-1-1.4-1 .4.6 1.6-.7.3-1.3-3.3zm-.4 1.7a.1.1 0 0 0 0-.1.1.1 0 0 0 0-.1l-.3-1-1.4.6.4 1zm4 .3a.4.4 0 0 1-.1 0 .4.4 0 0 1-.2 0 .4.4 0 0 1-.1 0 .4.4 0 0 1-.1-.2l-1.4-2.6 2.7-1.5.2.3-2 1 .3.9 2-1.1.2.3-2 1 .7 1.3v.1a.1.1 0 0 0 .2 0l1.9-1 .1.2zm8.3-5.3l-1.2-3.6.9-.7 3.3 1.6-.7.6-.8-.4-1.4 1.3.2.9zm0-1.6l1.2-1-1.9-1zm1.9-4.9l1.8-2a.4.4 0 0 1 .3-.2h.1l.2.2 2.2 2-.5.6-2.2-2a.1.1 0 0 0-.1 0 .1.1 0 0 0-.1 0l-1 1 2.3 2.1-.5.6zm4.8-6a.4.4 0 0 1 .1-.2.3.3 0 0 1 .2 0 .5.5 0 0 1 .1 0h.2l2 1.5a.5.5 0 0 1 .2.5.4.4 0 0 1 0 .1l-1.6 2.3-2.8-2zm2.2 2.2a.1.1 0 0 0 0-.2l-2-1.5h-.2l-.9 1.2 2.3 1.6zm4.3-9.5l-2-1.5.3-1 3.5.6-.2.5-3.1-.5 2.6 1.8-.2.4a.5.5 0 0 1-.1.2.2.2 0 0 1-.2 0l-3-.4 2.7 1.8-.3.7-2.9-2 .4-1zm2.5-4.3a.5.5 0 0 1-.4.3.4.4 0 0 1-.1 0l-2.9-.8.8-3h.3l-.6 2.3.9.3.5-2.3h.3l-.5 2.3 1.3.4a.2.2 0 0 0 .1 0 .1.1 0 0 0 .1-.1l.6-2.1h.3zm-1.8-8.2a.4.4 0 0 1 .2-.2.5.5 0 0 1 .1-.1.4.4 0 0 1 .2 0l2.5.4h.1l.2.1a.5.5 0 0 1 0 .2.4.4 0 0 1 0 .2l-.4 2.7-3.3-.5zm3 1a.1.1 0 0 0-.2-.1l-2.4-.4a.2.2 0 0 0-.1 0 .2.2 0 0 0 0 .1l-.3 1.4 2.8.4zm.6-4v.9l-3.4-.2v-.8zm.1-1.9l-3.4-1.4v-1.1l3.3-1.6v1l-.8.3v2l1 .3zm-1.2-1v-1.6l-2 .8z" fill="#006098"/><path d="M330.8 333.8a57.8 57.8 0 0 0-16.6-39 56 56 0 0 0-38.2-16.7 60.1 60.1 0 0 0-3.7 0 56 56 0 0 0-39.5 18.2 57.7 57.7 0 0 0-15.3 41.2 57.8 57.8 0 0 0 16.6 39 56 56 0 0 0 81.4-1.5 57.7 57.7 0 0 0 15.3-41.2m-1.5 2.9a51.5 51.5 0 0 1-.2 3.8 56.6 56.6 0 0 1-.5 4.1v.4l-2.3-.3v-.4l.2-1 .1-1-.6-.1a48.8 48.8 0 0 1-.6 3.9 47.6 47.6 0 0 1-1 4.2l.6.1.4-1.6.2-.7 2.2.5v.4l-1 3.7-.2.3h-.4.4l-.3.8a43.5 43.5 0 0 1-1.1 3.2l-.2.4-2.1-1 .2-.3.7-2-.6-.1-1.5 3.7-.4-.2.4.2a60.4 60.4 0 0 1-2 3.8l.6.3.6-1 .4-.8.2-.3 2 1-.2.4a55.9 55.9 0 0 1-2 3.7 50.6 50.6 0 0 1-2.3 3.5l-.3.4-1.9-1.4.3-.3a20.7 20.7 0 0 0 1.1-1.7l-.5-.3a51.3 51.3 0 0 1-2.5 3.5l-.4-.4.5.4a58.6 58.6 0 0 1-2.8 3.2l.4.4 1.7-1.8 1.7 1.5-.3.4-2.9 3.1-2.9 2.8-.3.3-1.5-1.8.3-.3 1.2-1 .3-.3-.4-.5a61.4 61.4 0 0 1-3 2.6 67.2 67.2 0 0 1-3.4 2.6l.3.5.4-.3 1.3-.9.3-.2 1.4 1.8-.9.6-2.9 2-3 1.9-1 .4-1-2 2.1-1.2-.3-.6a51.9 51.9 0 0 1-3.5 1.9 45.7 45.7 0 0 1-3.9 1.7l.3.6 1.8-.8.4-.2.9 2.2-.4.1c-1.2.6-2.5 1-3.8 1.5h-.1l-.2-.3.2.4a48.5 48.5 0 0 1-4 1.2h-.4l-.6-2.2.4-.1.9-.2 1-.3-.1-.6a47.3 47.3 0 0 1-8.3 1.7v.6a37.5 37.5 0 0 0 1.7-.2l.8-.1.3 2.3h-.4c-1.2.3-2.4.4-3.6.5h-.6l-.8.2c-1 0-2.1.1-3.2 0h-.4v-2.2h.4a29.4 29.4 0 0 0 2-.1v-.6h-4a58.6 58.6 0 0 1-4.2-.2v.6h.4l1.5.2h.5l-.2 2.3h-1.4l-3.1-.4a53.6 53.6 0 0 1-3.9-.7l-.6-.2.5-2.2 2.4.4v-.6a50.5 50.5 0 0 1-7.8-2l-.2.5a7 7 0 0 0 1.9.6l.4.2-.7 2.2-.4-.1a44.8 44.8 0 0 1-3.5-1.2l-.5-.2.2-.4-.2.4a53.6 53.6 0 0 1-3.8-1.7l-.3-.2 1-2h.3l.7.4 1.2.5.2-.5a45 45 0 0 1-3.8-2 42.3 42.3 0 0 1-3.7-2.1l-.3.5a42 42 0 0 0 1.7 1l.4.3-1.2 2-.4-.2a51 51 0 0 1-3-2l-.4-.3-.6-.4a42.7 42.7 0 0 1-2.7-2.1l-.3-.3 1.4-1.8.3.3 1.6 1.3.4-.5a46 46 0 0 1-3-2.6 53.4 53.4 0 0 1-3.1-3l-.5.5.8.8.7.6.3.3-1.6 1.7-.3-.3a54.1 54.1 0 0 1-3-3l.5-.3-.4.3a52.5 52.5 0 0 1-2.6-3.2l-.3-.3 1.8-1.5.3.4 1.2 1.6.5-.4a63.6 63.6 0 0 1-2.4-3.2l.4-.3-.4.3a58.7 58.7 0 0 1-2.3-3.6l-.6.3 1.3 2-2 1.4-.3-.7a55.3 55.3 0 0 1-2-3.4l-1.6-3.1-.4-1 2-1 .3.4.6 1.4.2.4.6-.2a57.6 57.6 0 0 1-1.8-4l.4-.1-.4.1a64.1 64.1 0 0 1-1.4-4l-.6.2.2.4.4 1.5.2.4-2.2.8-.3-1.1a52.7 52.7 0 0 1-1.9-6.9l-.2-1 2.3-.4.5 2.4.6-.1a55.1 55.1 0 0 1-1.2-8.2h-.6c0 .7 0 1.3.2 2v.5l-2.2.3-.1-.4a42 42 0 0 1-.2-3.2l-.1-1h.4-.4V333h2.3v.5a39.6 39.6 0 0 0 0 2h.6l.1-3.9h.4l-.4-.1.5-4.3h-.6l-.3 2.4-2.3-.3.2-1.1.5-3.6a46.9 46.9 0 0 1 1-4v-.5l2.3.7v.4a34.6 34.6 0 0 0-.5 1.5v.5h.5l1.2-4h.4-.4a56 56 0 0 1 1.4-4l-.5-.3-.2.4-.6 1.5-.1.4-2.2-.9.4-.8 1.4-3.4 1.8-3.6.3-.5 2 1.1-1.2 2.2.6.3a58.4 58.4 0 0 1 1.9-3.5 47 47 0 0 1 2.3-3.6l-.5-.4-1.1 1.7-.2.4-2-1.3.3-.4 2-3 .4-.4.3.3-.3-.3a55 55 0 0 1 2.7-3.2l.2-.3 1.7 1.6-.2.3-.6.7-.8.8.5.4a44.5 44.5 0 0 1 5.8-5.9l-.4-.4-1.2 1-.6.6-1.6-1.7.3-.3a78 78 0 0 1 2.8-2.4l.4-.4.2.3-.2-.3.6-.5 2.7-2 .4-.2 1.3 1.9-.4.2-1.6 1.2.3.5a42.9 42.9 0 0 1 3.5-2.4 45 45 0 0 1 3.7-2.1l-.2-.6-1.2.6-.6.4-.4.2-1.1-2 .4-.3 3.6-1.9a.1.1 0 0 0 .1 0l.6-.3a36.9 36.9 0 0 1 3.1-1.3l.4-.1.8 2.1-.4.2-1.8.7.2.6a52.3 52.3 0 0 1 7.7-2.6l-.1-.6-2.3.6-.7-2.2 1.1-.3 3.3-.8 3-.6 1-.2h.5l.3 2.3-2.4.4.1.6a46 46 0 0 1 4-.6v.4-.4l4.2-.2v-.6a26 26 0 0 0-2 0h-.5v-2.2h.3c1.1-.2 2.2-.1 3.3-.1h1v.4-.4h.4c1.2 0 2.4 0 3.7.2h.4l-.2 2.4-.8-.1a30.7 30.7 0 0 0-1.6-.1v.6a43.6 43.6 0 0 1 8.3 1.2l.1-.6-1-.2a11.9 11.9 0 0 1-1-.2h-.3l.4-2.4h.4a51 51 0 0 1 8 2.3h.4l-.8 2.3-.4-.2a26 26 0 0 0-1.8-.6h-.1l-.2.6 3.7 1.3a58.8 58.8 0 0 1 3.9 1.7l.3-.5-2.2-1 1-2.2.3.2.7.3a48.5 48.5 0 0 1 6 3.3l1 .6-1.3 2-.4-.3-1.3-.8-.4-.2-.3.5 3.3 2.1-.2.4.2-.4 3.4 2.6.4-.5-.3-.2-1.2-1-.4-.3 1.4-1.8.3.2a61 61 0 0 1 6.3 5.6l.3.3-1.6 1.6-1.8-1.7-.4.5a57.6 57.6 0 0 1 3 3l-.3.3.3-.2a53.8 53.8 0 0 1 2.7 3.3l.4-.4-.2-.3-1-1.3-.3-.3 1.8-1.5.3.3a50.3 50.3 0 0 1 2.5 3.4 59.5 59.5 0 0 1 2.2 3.5l.2.3-2 1.2-.1-.3-.5-.8a46.4 46.4 0 0 0-.6-1l-.5.4a52 52 0 0 1 2 3.4 45.1 45.1 0 0 1 1.9 3.8l.5-.2a37 37 0 0 0-.8-1.8l-.2-.4 2-1 .2.3a43 43 0 0 1 1.4 3l.3.8-.3.2.3-.1.3.7 1.1 3.2.1.4-2.1.7-.2-.4a37.1 37.1 0 0 0-.6-2l-.6.3a50.7 50.7 0 0 1 2.2 8l.6-.1-.3-1.2-.1-.8-.1-.4 2.2-.6.1.5.8 4.2.4 4v.6l-2.2.1v-.4a28.1 28.1 0 0 0-.2-1.6 41 41 0 0 0 0-.4h-.6l.3 4.3h-.4.4v4.4h.5v-.5l.1-1.5v-.5h2.3z" fill="#006098"/><path d="M300 380.8l.4-.2 1.2 2-2.2 1.2.3.6.1-.1a48.5 48.5 0 0 0 3-1.8l.3.3-.2-.3 2.9-2-.3-.6-1 .7-.6.5-.4.3-1.3-2 .4-.2a56.5 56.5 0 0 0 3.7-2.8 58.8 58.8 0 0 0 3.2-2.8l.3-.3 1.6 1.7-.3.3-.7.6-.8.8.4.4a43.5 43.5 0 0 0 2.5-2.4l2.6-2.8-.5-.4-1.6 1.9-1.7-1.6.3-.3a55.5 55.5 0 0 0 5.6-7.4l.3-.3 1.9 1.2-.2.4-.5.6-.7 1.1.5.4a54 54 0 0 0 2-3.1l.4.2-.4-.2a54.8 54.8 0 0 0 1.9-3.3l-.6-.3-.2.4-.8 1.4-.2.4-2-1.2.2-.3a55.3 55.3 0 0 0 2.1-4.2 48.8 48.8 0 0 0 1.6-4l.2-.4 2.1.8-.1.4a42.3 42.3 0 0 1-.7 2l.5.2 1-2.8.3-.7.1-.4 1-3.2-.7-.1-.5 2-.2.4-2.2-.7.2-.4c.5-1.7.8-3.2 1-4.5.4-1.4.5-2.9.7-4.3v-.4l2.3.3v.4l-.2 1.6v.4l.5.1.5-3.5.1-3.8h-.6v2.5l-2.4-.2v-.4c.2-1.5.2-3 .1-4.6a64.8 64.8 0 0 0-.3-4.7v-.4l2.2-.3v.5l.1.8.2 1.2h.6a57 57 0 0 0-.5-3.7h.5-.5a51.1 51.1 0 0 0-.6-3.7l-.6.1v.5l.4 1.5v.4l-2.2.5v-.4a55.9 55.9 0 0 0-1.1-4.6l.5-.1-.5.1a42 42 0 0 0-1.3-4.1l-.2-.4 2.2-.8.1.3.7 2 .6-.2-1-2.7-.3-.7c0-.3-.2-.6-.3-.8l-1.1-2.6-.6.3.9 1.8.1.4-2 1-.2-.4a46.1 46.1 0 0 0-2-4.2 57 57 0 0 0-2.3-3.7l-.2-.4 2-1.3.1.4 1 1.4.1.4.6-.4a49.4 49.4 0 0 0-2-3 55.4 55.4 0 0 0-2.2-3l-.5.4.8 1 .5.6.2.4-1.8 1.4-.3-.4a51 51 0 0 0-2.9-3.6 54.7 54.7 0 0 0-3.2-3.3l-.3-.3 1.6-1.7 1.7 1.7.5-.4a49.8 49.8 0 0 0-2.7-2.5l.3-.3-.3.3a50.7 50.7 0 0 0-2.9-2.4l-.3.5.9.7.7.5.3.3-1.5 1.8-.3-.2c-1-1-2.2-1.8-3.7-2.9a54 54 0 0 0-3.6-2.3l-.3-.2 1.1-2 .4.2.7.5 1 .6.3-.6-.2-.1-2.9-1.7.2-.4-.2.4a42.9 42.9 0 0 0-3-1.5 4.4 4.4 0 0 1-.3-.2l-.2.6 2.2 1-1 2.2-.4-.2a59 59 0 0 0-4.2-1.9 51.8 51.8 0 0 0-4-1.4l-.4-.1.6-2.2.9.2 1.5.5.2-.6a57.2 57.2 0 0 0-3.5-1 52.5 52.5 0 0 0-3.6-.9v.6l.4.1 1.5.4h.4l-.5 2.3h-.4a46 46 0 0 0-4.5-1v-.3.4a43.1 43.1 0 0 0-4.6-.5h-.4l.1-2.3h.4c.7 0 1.4 0 2.1.2v-.7a59 59 0 0 0-3.2-.2h-4.1v.7a39 39 0 0 1 2 0h.5v2.3h-.4a48.8 48.8 0 0 0-4.6.2 56.7 56.7 0 0 0-4.3.6h-.4l-.4-2.2 2.5-.4-.1-.7-.6.1-3 .6-.1-.4v.4l-3.2.8h-.3l.2.7 2.4-.7.5 2.3h-.4a57.6 57.6 0 0 0-8.3 3l-.4.1-1-2.1.4-.2 2-.8-.3-.6-2.7 1.2-.6.3c-1.1.5-2.2 1-3.3 1.7l.3.5.3-.1a23.3 23.3 0 0 1 1.5-.8l.4-.2 1 2-.3.2a47.7 47.7 0 0 0-4 2.3l-.2-.3.2.3a41.9 41.9 0 0 0-3.8 2.6l-.3.3-1.4-1.8.3-.3a28.4 28.4 0 0 1 1.7-1.2l-.4-.5-2.3 1.7-.6.5-.4.3a49.8 49.8 0 0 0-2.4 2.1l.4.5 1.5-1.4.3-.2 1.5 1.7-.3.3a45 45 0 0 0-3.3 3.2l-.4-.3.3.3a46.7 46.7 0 0 0-2.8 3.2l-.3.3-1.7-1.4.2-.4 1-1.2.4-.3-.5-.5a56.2 56.2 0 0 0-2.3 2.8l-.4.5-1.8 2.5.5.4 1.2-1.7.2-.3 1.9 1.3-.3.4a46.6 46.6 0 0 0-2.5 3.8l-2.1 3.8-.2.4-2-1 1.1-2.3-.5-.3a53.7 53.7 0 0 0-3 6.7l.5.3.4-1.1.4-.8.1-.4 2.1.9-.1.4a55.1 55.1 0 0 0-1.7 4.3 53 53 0 0 0-1.2 4.5v.4l-2.3-.5v-.4l.3-.9.3-1.1-.6-.2-.1.4c-.3 1-.6 2.1-.7 3.2l-.5-.1.4.1-.5 3.5v.2l.5.1.4-2.5 2.3.4v.4a55.1 55.1 0 0 0-.7 4.7 46.3 46.3 0 0 0 0 4.3v.5h-2.4v-.4a28.4 28.4 0 0 1 0-2.1h-.6a46 46 0 0 0 0 2.5v2.1l.3 2.7h.6a27.8 27.8 0 0 1-.2-2.1v-.4l2.3-.2v.5c0 1.3.2 2.8.5 4.6l.8 4.2v.4l-.3.2-1.9.4-.5-2.5-.6.2.9 3.6a48 48 0 0 0 1 3.3v.2l.6-.2a43.7 43.7 0 0 1-.4-1.1l-.2-.9-.2-.4 2.2-.7.2.4a58.8 58.8 0 0 0 1.5 4.4l1.9 4.3.2.3-2 1.1-.3-.4-.3-.8a36.6 36.6 0 0 1-.6-1l-.5.2v.2l1.6 3.1-.4.2.4-.2a48.7 48.7 0 0 0 2 3.3l.4-.3-1.3-2.2 2-1.2.2.4a61 61 0 0 0 2.5 3.9 54 54 0 0 0 2.7 3.4l.3.4-1.8 1.5-.5-.7-1-1.2-.5.3a50.6 50.6 0 0 0 2.3 2.9 51.7 51.7 0 0 0 2.5 2.6l.5-.4-.4-.4-1-1.1-.4-.3 1.7-1.6.3.3a52.2 52.2 0 0 0 3.3 3.2 43.8 43.8 0 0 0 3.3 2.7l.3.3-1.3 1.8-.4-.2a25.9 25.9 0 0 1-1.6-1.3l-.4.5 2.3 1.8.6.4.4.3a57 57 0 0 0 2.7 1.8l.3-.6a35.5 35.5 0 0 1-1.7-1.1l-.4-.2 1.3-2 .3.3a41.1 41.1 0 0 0 4 2.3l-.2.4.2-.4c1.2.7 2.5 1.4 4.1 2l.4.2-.9 2.1-.4-.1a24.3 24.3 0 0 1-1.6-.7l-.3-.2-.2.6a70.4 70.4 0 0 0 3.3 1.5l.5.2 3 1 .2-.6a37.9 37.9 0 0 1-2-.6l-.3-.2.8-2.2.4.2c1.2.5 2.6.9 4.3 1.4v.2-.2l4.2.9h.4l-.3 2.4-2.5-.5v.6c1 .2 2.3.5 3.5.6v.4-.4a39 39 0 0 0 3.6.4v-.6a48.8 48.8 0 0 1-1.1-.1 44.6 44.6 0 0 1-.9-.1h-.4l.3-2.4h.4c1.3.2 2.8.4 4.5.4h.4l4-.1h.3l.2 2.3h-.6l-1.9.1v.6h2.7l1-.2h.4l3.2-.4-.1-.6c-.7 0-1.4.2-2 .3h-.5l-.2-2.3h.4l4.5-.8v.4-.4c1.3-.3 2.7-.6 4.4-1.2h.4l.7 2.1-.4.2-1.5.4-.5.1.2.6a54 54 0 0 0 3.5-1h.1l3.4-1.4-.3-.5-1.8.7-.5.2-.8-2.2.4-.2a47.6 47.6 0 0 0 4.3-1.8l.3.8-.3-.8a57.8 57.8 0 0 0 3.8-2m-24.3 5.6a49.5 49.5 0 0 1-3.4 0 50.5 50.5 0 0 1-48.2-49 50.9 50.9 0 0 1 13.5-36.4 49.3 49.3 0 0 1 34.8-16 52.3 52.3 0 0 1 3.3 0 50.5 50.5 0 0 1 48.3 49 51 51 0 0 1-13.5 36.4 49.3 49.3 0 0 1-34.8 16" fill="#006098"/><path d="M269.5 367.6v.3h1.2v2.1h-1.2v.4h-.3v-.4h-1.3v-2h1.3v-.3zm-.3 2.1v-1.5h-1v1.5zm.3-1.5v1.5h.9v-1.5zm1.8 2l1.3-1.3v-.4h-1.2v-.3h1.2v-.6h.3v.6h1.3v.3h-1.3v.4l1.3 1.3-.2.3-1.2-1.3-1.2 1.2zm3.8.2h-.3v-2h1.3v-.3h-1.3v-.3h1.3v-.2h.3v.2h1.3v.3h-1.3v.3h1.3v2h-.6v-.2h.2v-1.5h-2.2zm1.3-.6h.7v.3h-.7v.3h-.3v-.3h-.7v-.3h.7v-.3h-.7v-.3h1l.3-.4.3.1-.3.4h.4v.2h-.7zm-.6-1l.3.3h-.3l-.3-.2zm5.3-1v.4h-2v.6h2l-.1 1.7h-.7v-.3h.4V369H279l-.5 1.4-.2-.1.4-1.5v-.7h-.4v-.3h1.3l-.1-.2.3-.1.2.3z" fill="#006098"/><path d="M244 364.5s14.6-16 25.3-15.8c16.6.4 35.2 14.9 35.2 14.9s-24.6-5.9-36.4-5.5c-9.2.3-24.1 6.4-24.1 6.4" fill="#00487a"/><path fill="#0a67a1" d="M277.5 335.8h4v1.6h-4zm-3.5-5.7h4.5v3.4H274zm6.6 0h4.5v3.4h-4.5zm-6.6-5.5h4.5v3.4H274z"/><path d="M283 304.4l-2.6 2c2.5.8 6 2.4 8.4 5.3 4 4.6 8.7 18 9 18.5l-3 1.8a87 87 0 0 0-8.3-18.3c-3.4-4-9.8-5.1-9.9-5.1a1.5 1.5 0 0 1-1-.8c-.3.4-.7.7-1.1.8-.1 0-7.2 1.1-10.5 5-3.6 4.3-9.7 18-9.8 18.2l-2.6-1.7a111 111 0 0 1 10-18.5c2.5-2.9 6.3-4.5 9-5.3l-3-2.2c-3.6.4-8.4 1.5-9.8 3.4-6.5 8.8-12 44.5-13.9 57 15-13.4 22.7-15.4 26.8-15 8 1 22.7 7.8 33.8 14-1.7-14.2-6-45.6-11.7-54.2-1.3-2-6-3.9-9.8-4.9M268.2 346l-2.1-.1 1.2-18.1h-2.4l-2 17.9-2-.3 2-18.9 1-1h3.5l.4-5.5H263v-2.2h5.7l1 1.2zm20.7 0h-18.4v-2.2h8v-1H273l-1-1.2v-4.5h2.1v3.4h4.4v-.9h-2l-1-1v-3H273l-1.1-1v-11l1-1.2h5.6v-1.3h-5.9v-2.2h5.9v-2h2.1v2h6v2.2h-6v1.4h5.6l1.1 1v11.1l-1 1h-2.7v3l-1 1h-2v1h4.5v-3.8h2.1v4.8l-1 1.1h-5.6v1.1h8.2z" fill="#006098"/><path fill="#0a67a1" d="M280.6 324.6h4.5v3.4h-4.5zm33.8 12a41 41 0 0 0-33.8-40.7c.8 1.5 1.5 3.7 2 5.2 2.7.6 9.5 3.6 12.8 6.4 7.4 6.4 24 21 11.8 52.6a41.5 41.5 0 0 0 7.2-23.4m-59.1-31c3.6-2.3 10-4.5 12.8-4.8a30.6 30.6 0 0 1 2.2-5.4 41 41 0 0 0-37 41 41.5 41.5 0 0 0 8 24.8c-13.8-36.8 6.4-50.9 14-55.6m20.3.6a1.7 1.7 0 0 1 .4-.5l4-3a31 31 0 0 0-2.5-6c-1-1.2-3.1-1.2-4.4 0a28 28 0 0 0-2.3 5.8l4.3 3.2.5.5"/></g></svg>